<svg height="100%" version="1.1" width="100%" xmlns="http://www.w3.org/2000/svg" preserveAspectRatio="xMidYMid meet" viewBox="0 0 600 442" xmlns:xlink="http://www.w3.org/1999/xlink"><desc>Created with Snap</desc><defs/><g id="root" contentwidth="295.6" contentheight="83.4">
          <rect class="background" height="2000%" width="2000%" y="-1000%" x="-1000%" style="" fill="none"/>
          <rect class="watermarklayer" height="100%" width="100%" y="0" x="0" style="" fill="none"/>
          <g class="content" id="content" transform="matrix(1,0,0,1,57.2,8.7)">
            <g class="icon">
            <svg height="83" version="1.1" width="128" xmlns="http://www.w3.org/2000/svg" x="95" y="171" preserveAspectRatio="none" transform="matrix(1,0,0,1,0,0)"><desc>Created with Snap</desc><defs/>
            <svg xmlns="http://www.w3.org/2000/svg" viewBox="86 169 120 83">
                <path d="m174.658 169 1.16 1.984c4.384 7.502 6.705 16.105 6.705 24.864 0 1.866-.099 3.712-.315 5.539a41.482 41.482 0 0 0-7.806-.904 40.6 40.6 0 0 0 .256-4.635c0-6.58-1.554-13.06-4.523-18.855-13.232.982-25.03 8.073-32.108 19.366.04.314.078.667.137 1.06a45.709 45.709 0 0 0 1.514 7.11c.178.648.374 1.296.61 1.924.039.177.118.354.177.531.157.452.315.904.51 1.356.138.353.276.687.414 1.04.216.491.433 1.002.648 1.473.08.197.158.393.256.57.236.51.473 1.001.747 1.493.138.294.296.589.433.844.256.471.53.923.787 1.375.098.177.196.353.314.51v.02c.02.02.02.04.04.06.314.549.648 1.08 1.003 1.59.078.137.156.255.255.373.315.51.669 1.002 1.042 1.493.413.59.865 1.159 1.337 1.728.236.334.491.649.787.962a30.3 30.3 0 0 0 1.042 1.199c.53.588 1.081 1.178 1.67 1.728v.02c.198.196.394.393.59.57.394.392.788.746 1.18 1.1a49.317 49.317 0 0 0 3.835 3.102c8.305-5.96 14.029-14.65 16.242-24.432a38.43 38.43 0 0 0-4.546.951c-8.878 2.229-17.99 9.65-16.915 18.891a27.359 27.359 0 0 1-1.661-1.705 30.005 30.005 0 0 1-1.037-1.182c-.273-.31-.527-.62-.782-.95a26.537 26.537 0 0 1-1.329-1.704 38.825 38.825 0 0 1-1.036-1.472 2.469 2.469 0 0 1-.255-.369 21.412 21.412 0 0 1-.997-1.569c-.02-.02-.02-.039-.039-.058v-.02c2.953-5.618 8.212-10.094 14.156-12.303 4.928-1.937 10.226-2.79 15.506-2.654 2.62.058 5.22.348 7.763.891 6.862 1.414 13.355 4.456 18.575 8.932-5.67-3.623-12.299-5.658-18.986-6.045l-.302-.016.083-.463a49.049 49.049 0 0 1-8.77 20.701c.59-.49 1.18-1.021 1.81-1.571.236-.197.59-.629.963-1.08 1.24-1.454 3.048-3.614 6.233-5.48l.885-.491a16.558 16.558 0 0 1 6.469-1.316c9.162 0 16.615 7.444 16.615 16.596 0 7.7-5.21 14.318-12.682 16.125l-.571.098a55.22 55.22 0 0 1-4.444.177c-.471 0-.943 0-1.357-.02a55.154 55.154 0 0 1-19.839-4.164 54.454 54.454 0 0 1-8.179-4.202l-.963-.492-1.868-.962-.983-.628a55.546 55.546 0 0 1-12.388-11.038 12.82 12.82 0 0 1-.669-.786c-6.252-7.778-10.342-17.166-11.66-27.182-.117-.649-.176-1.297-.255-2.003v-.04l-.059-.275a18.373 18.373 0 0 0-10.677-13.375c-2.32-1.06-4.837-1.59-7.471-1.59-8.082 0-15.12 5.125-17.598 12.804a41.81 41.81 0 0 0-.472 6.384c0 1.433.079 2.868.216 4.281a42.968 42.968 0 0 0 3.028 12.236c6.744 16.478 22.632 27.124 40.465 27.124.276 0 .53 0 .944-.02a43.896 43.896 0 0 0 13.35-2.376l2.557 7.424a51.104 51.104 0 0 1-15.553 2.808c-.413.02-.865.02-1.298.02-21.038 0-39.777-12.57-47.74-31.995-1.887-4.556-3.087-9.427-3.578-14.455a47.621 47.621 0 0 1-.256-5.047c0-2.573.177-5.107.55-7.502l.177-.885a26.29 26.29 0 0 1 2.536-5.773v-.02l-.274-5.186a1.815 1.815 0 0 1 1.887-1.924l4.424.118c4.562-3.712 10.382-5.873 16.635-5.873 3.755 0 7.373.766 10.696 2.279a26.205 26.205 0 0 1 12.388 11.371c9.103-11.176 22.572-17.794 37.319-18.069l2.32-.039Zm14.727 53.932a8.444 8.444 0 0 0-3.146.59c-2.163 1.217-3.362 2.631-4.404 3.889-.571.667-1.102 1.315-1.75 1.885-3.245 2.907-6.43 5.361-10.205 7.227.078.04.157.079.236.099a46.891 46.891 0 0 0 16.91 3.574l.255.02h.845c1.24 0 2.439-.04 3.618-.138 3.775-1.021 6.39-4.458 6.39-8.406 0-4.812-3.912-8.74-8.749-8.74ZM109 190a4 4 0 1 1 0 8 4 4 0 0 1 0-8Z" id="prefix-W6_-形状结合" fill="#ffffff"/>
            </svg>
            </svg>
            <svg height="11" version="1.1" width="7" xmlns="http://www.w3.org/2000/svg" x="154" y="216" preserveAspectRatio="none" transform="matrix(1,0,0,1,0,0)"><desc>Created with Snap</desc><defs/>
                <svg xmlns="http://www.w3.org/2000/svg" viewBox="145 214 7 11"><path d="m152.101 222.383-.008.088a12.78 12.78 0 0 0 .043 2.529 27.359 27.359 0 0 1-1.661-1.705 30.005 30.005 0 0 1-1.037-1.182c-.273-.31-.527-.62-.782-.95a26.537 26.537 0 0 1-1.329-1.704 38.825 38.825 0 0 1-1.036-1.472 2.469 2.469 0 0 1-.255-.369 21.412 21.412 0 0 1-.997-1.569c-.02-.02-.02-.039-.039-.058v-.02c.288-.548.599-1.086.93-1.612 2.346 3.387 4.403 6.062 6.171 8.024Z" id="prefix-9U9-形状结合" fill-opacity="1" fill="#ffffff"/>
                </svg>
            </svg>
            </g>
            <g id="icon_name_and_slogan_gap">
            </g>
            <g class="name_and_slogan" id="name_and_slogan_id">
              <g class="name"><g id="nameDefaultGroup"><path d="M218.7 204.7 L240.7 204.7 L240.7 201.7 L247.6 198 L224.9 198 L224.9 190.9 L263.5 190.9 L263.5 198 L250.6 204.7 L271.6 204.7 L271.6 211.9 L249.9 211.9 L249.9 220.4 L241.2 225.8 L235.6 219.5 L240.7 216.7 L240.7 211.9 L218.7 211.9 L218.7 204.7 Z M253.5 179.9 L258.3 170.8 L268.1 170.8 L263.4 179.9 L271.3 179.9 L271.3 189.7 L262.3 189.7 L262.3 186.8 L227.7 186.8 L227.7 189.7 L218.7 189.7 L218.7 179.9 L253.5 179.9 Z M225.3 177.8 L221.7 170.8 L231.6 170.8 L235.3 177.8 L225.3 177.8 Z M241.6 177.8 L238 170.8 L247.9 170.8 L251.7 177.8 L241.6 177.8 Z M296.6 224.9 L290.7 202.7 L287.4 224.9 L278.8 224.9 L283.5 196.9 L279.7 196.9 L277.5 174.6 L283.3 174.6 L285 188 L287.9 170.6 L295.6 170.6 L291.3 198.5 L296.5 198.5 L304.6 224.9 L296.6 224.9 Z M332.3 171.6 L332.3 178.3 L324.4 178.3 L324.4 219.3 L315.3 226.1 L309.2 219.3 L314.8 215.3 L314.8 178.3 L303.6 178.3 L303.6 171.6 L332.3 171.6 Z M291.8 196.9 L297.5 174.8 L303.4 174.8 L298 196.9 L291.8 196.9 Z M376.7 216.7 L374.1 208.4 L371.8 216.7 L359.4 216.7 L357 208.4 L354.5 216.7 L348.7 216.7 L348.7 224.8 L339.7 224.8 L339.7 171.7 L390.6 171.7 L390.6 220.4 L383.2 225.5 L378.1 219 L381.6 216.7 L376.7 216.7 Z M381.6 180.7 L381.6 178.4 L348.7 178.4 L348.7 213.5 L353.8 197.4 L349 180.7 L355.6 180.7 L357.3 186.4 L359.1 180.7 L365.5 180.7 L360.5 197.1 L365.7 214.4 L370.7 197.3 L365.7 180.7 L372.3 180.7 L374 186.2 L375.6 180.7 L381.6 180.7 Z M381.6 210.1 L381.6 182.4 L377.4 197 L381.6 210.1 Z" style="" fill="#ffffff" transform="matrix(1,0,0,1,0,0)"/></g></g>
              <g class="slogan"><g id="sloganDefaultGroup"><path d="M224 243.5 L220.5 238.2 L222.4 238.2 L225.1 242.5 L225.3 242.5 L227.9 238.2 L229.8 238.2 L226.4 243.5 L230 249 L228.1 249 L225.2 244.5 L225.1 244.5 L222.2 249 L220.3 249 L224 243.5 Z M244.8 238.2 L244.8 249 L243.3 249 L243.1 247.4 Q242.8 248 242.5 248.3 Q242.1 248.7 241.6 248.9 Q241.2 249 240.7 249.1 Q240.2 249.2 239.7 249.2 Q238.6 249.2 237.9 249 Q237.2 248.7 236.8 248.2 Q236.4 247.8 236.2 247.1 Q236.1 246.5 236.1 245.7 L236.1 238.2 L237.8 238.2 L237.8 245 Q237.8 245.7 237.9 246.2 Q237.9 246.6 238.2 247 Q238.4 247.3 238.8 247.5 Q239.2 247.7 239.9 247.7 Q240.4 247.7 240.8 247.6 Q241.3 247.5 241.7 247.3 Q242.1 247.1 242.5 246.7 Q242.8 246.2 243 245.5 L243 238.2 L244.8 238.2 Z M261 242.5 Q261 242.7 261 243.1 Q260.9 243.4 260.9 243.8 L253.6 244.2 Q253.6 245.1 253.7 245.8 Q253.9 246.4 254.3 246.8 Q254.7 247.3 255.4 247.5 Q256 247.7 257 247.7 Q257.9 247.7 258.8 247.5 Q259.8 247.3 260.4 247 L260.4 248.6 Q260.2 248.7 259.8 248.8 Q259.4 248.9 258.9 249 Q258.4 249.1 257.9 249.1 Q257.3 249.2 256.8 249.2 Q255.6 249.2 254.6 248.9 Q253.7 248.7 253.1 248 Q252.4 247.4 252.1 246.3 Q251.8 245.2 251.8 243.6 Q251.8 242 252.1 240.9 Q252.4 239.8 253 239.2 Q253.7 238.5 254.6 238.3 Q255.5 238 256.7 238 Q258 238 258.9 238.4 Q259.7 238.8 260.2 239.5 Q260.7 240.1 260.8 240.9 Q261 241.7 261 242.5 Z M259.3 242.5 Q259.3 241.9 259.2 241.4 Q259.1 240.8 258.8 240.4 Q258.6 239.9 258 239.7 Q257.5 239.4 256.7 239.4 Q255.7 239.4 255.1 239.7 Q254.5 239.9 254.2 240.4 Q253.9 240.8 253.7 241.5 Q253.6 242.1 253.6 243 L259.3 242.5 Z M277 233.8 L277 249 L275.6 249 L275.3 247.2 Q275 248.1 274.1 248.6 Q273.3 249.2 271.8 249.2 Q270.5 249.2 269.6 248.8 Q268.7 248.4 268.2 247.6 Q267.7 246.9 267.5 245.9 Q267.3 244.8 267.3 243.6 Q267.3 242.5 267.5 241.5 Q267.7 240.5 268.2 239.7 Q268.7 238.9 269.6 238.5 Q270.5 238 271.8 238 Q272.6 238 273.2 238.2 Q273.8 238.3 274.2 238.6 Q274.6 238.8 274.9 239.2 Q275.2 239.6 275.3 240.1 L275.3 233.8 L277 233.8 Z M272.1 247.7 Q273 247.7 273.7 247.5 Q274.3 247.2 274.7 246.6 Q275.1 246.1 275.2 245.3 Q275.4 244.6 275.4 243.6 Q275.4 242.7 275.2 241.9 Q275.1 241.1 274.7 240.6 Q274.3 240 273.7 239.8 Q273 239.4 272.1 239.4 Q271.1 239.4 270.5 239.8 Q269.9 240.1 269.6 240.7 Q269.3 241.3 269.3 242.1 Q269.2 242.8 269.2 243.6 Q269.2 244.4 269.3 245.2 Q269.4 246 269.7 246.5 Q270 247.1 270.5 247.4 Q271.1 247.7 272.1 247.7 Z M293.2 242.5 Q293.2 242.7 293.2 243.1 Q293.2 243.4 293.1 243.8 L285.8 244.2 Q285.8 245.1 286 245.8 Q286.2 246.4 286.6 246.8 Q287 247.3 287.6 247.5 Q288.3 247.7 289.3 247.7 Q290.2 247.7 291.1 247.5 Q292 247.3 292.7 247 L292.7 248.6 Q292.4 248.7 292 248.8 Q291.7 248.9 291.2 249 Q290.7 249.1 290.2 249.1 Q289.6 249.2 289 249.2 Q287.8 249.2 286.9 248.9 Q286 248.7 285.3 248 Q284.7 247.4 284.4 246.3 Q284 245.2 284 243.6 Q284 242 284.4 240.9 Q284.7 239.8 285.3 239.2 Q285.9 238.5 286.8 238.3 Q287.8 238 288.9 238 Q290.3 238 291.1 238.4 Q292 238.8 292.4 239.5 Q292.9 240.1 293.1 240.9 Q293.2 241.7 293.2 242.5 Z M291.5 242.5 Q291.5 241.9 291.5 241.4 Q291.4 240.8 291.1 240.4 Q290.8 239.9 290.3 239.7 Q289.8 239.4 288.9 239.4 Q288 239.4 287.4 239.7 Q286.8 239.9 286.4 240.4 Q286.1 240.8 286 241.5 Q285.8 242.1 285.8 243 L291.5 242.5 Z M305.4 238 Q306.5 238 307.1 238.3 Q307.9 238.5 308.3 239 Q308.7 239.5 308.9 240.1 Q309 240.7 309 241.5 L309 249 L307.3 249 L307.3 242.2 Q307.3 241.5 307.2 241.1 Q307.1 240.6 306.9 240.2 Q306.7 239.9 306.3 239.7 Q305.9 239.5 305.2 239.5 Q304.7 239.5 304.2 239.6 Q303.7 239.7 303.3 239.9 Q302.9 240.1 302.5 240.6 Q302.2 241 301.9 241.7 L301.9 249 L300.2 249 L300.2 238.2 L301.9 238.2 L301.9 239.7 Q302.2 239.2 302.6 238.9 Q303 238.5 303.4 238.4 Q303.9 238.2 304.4 238.1 Q304.9 238 305.4 238 Z M317.8 249.1 Q317.1 249.1 316.8 248.9 Q316.5 248.7 316.5 247.8 Q316.5 247 316.8 246.8 Q317.1 246.6 317.8 246.6 Q318.5 246.6 318.8 246.8 Q319.1 247 319.1 247.8 Q319.1 248.7 318.8 248.9 Q318.5 249.1 317.8 249.1 Z M331 249.2 Q329.8 249.2 328.8 248.9 Q327.9 248.7 327.3 248 Q326.6 247.4 326.3 246.3 Q326 245.2 326 243.6 Q326 242 326.3 240.9 Q326.6 239.8 327.3 239.2 Q327.9 238.5 328.8 238.3 Q329.8 238 331 238 Q331.9 238 332.6 238.1 Q333.3 238.2 333.8 238.4 L333.8 240 Q333.2 239.8 332.5 239.6 Q331.8 239.5 331 239.5 Q330.1 239.5 329.5 239.7 Q328.9 239.9 328.5 240.4 Q328.1 240.8 328 241.6 Q327.8 242.4 327.8 243.6 Q327.8 244.8 328 245.6 Q328.1 246.4 328.5 246.8 Q328.9 247.3 329.5 247.5 Q330.1 247.7 331 247.7 Q331.8 247.7 332.5 247.6 Q333.3 247.5 333.8 247.2 L333.8 248.8 Q333.6 248.9 333.3 249 Q333 249 332.6 249.1 Q332.2 249.1 331.8 249.2 Q331.4 249.2 331 249.2 Z M345.7 238 Q346.8 238 347.5 238.3 Q348.2 238.5 348.6 239 Q349 239.5 349.2 240.1 Q349.4 240.7 349.4 241.5 L349.4 249 L347.6 249 L347.6 242.2 Q347.6 241.5 347.5 241.1 Q347.5 240.6 347.2 240.2 Q347 239.9 346.6 239.7 Q346.2 239.5 345.6 239.5 Q345 239.5 344.5 239.6 Q344.1 239.7 343.6 239.9 Q343.2 240.1 342.8 240.6 Q342.5 241 342.3 241.7 L342.3 249 L340.6 249 L340.6 238.2 L342.3 238.2 L342.3 239.7 Q342.5 239.2 342.9 238.9 Q343.3 238.5 343.8 238.4 Q344.2 238.2 344.7 238.1 Q345.2 238 345.7 238 Z" style="" fill="#ffffff" transform="matrix(1,0,0,1,0,0)"/></g></g>
            </g>
            <g class="border">
            </g>
          </g>
          <defs id="defs">
            <mask xmlns="http://www.w3.org/2000/svg" id="mask">
                <rect id="showAll" fill="white" x="95" y="171" width="120" height="83"/>
                <rect id="hideNameBg" fill="black" x="0" y="0" width="0" height="0" stroke-width="2" stroke="black"/>
                <rect id="hideSloganBg" fill="black" x="0" y="0" width="0" height="0" stroke-width="2" stroke="black"/>
            </mask>

          </defs>
        </g>
        </svg>
